<?xml version="1.0" encoding="UTF-8"?>
<svg version="1.1" xmlns="http://www.w3.org/2000/svg" width="1000" height="1000">
<path d="M0 0 C1.1667627 0.20931152 2.33352539 0.41862305 3.53564453 0.63427734 C18.97203912 3.4747026 34.13191554 6.95308993 49 12 C49.87672363 12.29632324 50.75344727 12.59264648 51.65673828 12.89794922 C99.15246199 29.14537803 139.85888205 55.40691986 176 90 C176.52400391 90.50063965 177.04800781 91.0012793 177.58789062 91.51708984 C183.40654367 97.1088688 188.75200451 102.90203571 193.7734375 109.21875 C196.01469102 112.01835089 198.34562055 114.72183523 200.6875 117.4375 C216.71028006 136.71451911 229.27306909 158.41135307 240 181 C240.35126953 181.72380859 240.70253906 182.44761719 241.06445312 183.19335938 C256.21838247 214.54355183 264.83072344 248.5304923 269 283 C269.08547592 283.65049316 269.17095184 284.30098633 269.25901794 284.97119141 C270.01039936 291.04203902 270.19164012 297.05072516 270.23828125 303.1640625 C270.24802979 304.22212097 270.25777832 305.28017944 270.26782227 306.37030029 C270.43738088 329.55447363 270.33942297 352.15830441 266 375 C265.81808105 375.97807617 265.63616211 376.95615234 265.44873047 377.96386719 C256.86937628 422.57037537 238.80456737 464.73061976 213 502 C212.56155762 502.63953613 212.12311523 503.27907227 211.67138672 503.93798828 C205.61903782 512.74754423 199.07596175 520.99192125 192 529 C191.17242188 529.93972656 190.34484375 530.87945313 189.4921875 531.84765625 C177.90093336 544.73273539 165.80980199 557.48272573 152 568 C150.75155726 568.98695842 149.50425068 569.97535497 148.2578125 570.96484375 C130.97530181 584.57240859 112.53546251 595.92258685 93 606 C92.21334961 606.40702148 91.42669922 606.81404297 90.61621094 607.23339844 C66.27341691 619.67063753 39.97123306 628.39478622 13.1875 633.6875 C12.229646 633.87803955 11.27179199 634.0685791 10.28491211 634.26489258 C6.86509442 634.90420733 3.43835548 635.47176896 0 636 C-1.23540024 636.19062515 -1.23540024 636.19062515 -2.49575806 636.38510132 C-18.55346354 638.79127996 -34.33906204 639.52691068 -50.5625 639.4375 C-51.74010895 639.43445862 -52.9177179 639.43141724 -54.13101196 639.42828369 C-72.74258438 639.35741486 -90.68921449 638.49084702 -109 635 C-110.12116211 634.79632812 -111.24232422 634.59265625 -112.39746094 634.3828125 C-172.06692761 623.30060717 -231.4788757 593.77612981 -273.9921875 550.0078125 C-275.92018418 548.07981582 -277.91631831 546.31932966 -280 544.5625 C-288.33102477 537.38627074 -295.16744265 528.5696482 -302 520 C-302.78117187 519.02546875 -303.56234375 518.0509375 -304.3671875 517.046875 C-326.05926997 489.46397142 -344.73455244 457.24355435 -355.18164062 423.61279297 C-356.0937634 420.70063964 -357.05453387 417.80650265 -358.015625 414.91015625 C-361.569996 404.01496809 -364.62843252 393.13055842 -366.8125 381.875 C-366.99506348 380.9370459 -367.17762695 379.9990918 -367.36572266 379.03271484 C-367.97100447 375.6955609 -368.49554141 372.35401908 -369 369 C-369.12528076 368.18107269 -369.25056152 367.36214539 -369.37963867 366.5184021 C-371.60944302 351.61531125 -372.47666729 336.98169038 -372.39111328 321.91870117 C-372.37502223 318.56713089 -372.39108427 315.21676882 -372.41015625 311.86523438 C-372.43956937 281.46593727 -367.67778952 251.78103797 -358.5625 222.8125 C-358.33361084 222.08323303 -358.10472168 221.35396606 -357.86889648 220.6026001 C-352.95396594 205.06191985 -346.87844207 190.21482925 -339.75 175.5625 C-339.42163147 174.88546021 -339.09326294 174.20842041 -338.75494385 173.51086426 C-334.11180015 163.96826387 -329.30401168 154.66842982 -323.29833984 145.90039062 C-321.82664161 143.74625391 -320.39249498 141.56906296 -318.95703125 139.390625 C-309.52442561 125.20326842 -299.10267136 112.06046435 -287.4375 99.6484375 C-285.69428555 97.75436796 -284.04943926 95.86505189 -282.42578125 93.875 C-280.43637748 91.51718812 -278.5482081 89.58314525 -276.1875 87.625 C-273.4287663 85.2808441 -270.87201222 82.86999141 -268.375 80.25 C-263.27592352 75.08107315 -257.52787816 70.77043035 -251.77294922 66.3671875 C-250.13804772 65.10645377 -248.5230917 63.81996707 -246.91015625 62.53125 C-232.0449943 50.74625674 -215.83057149 40.72039738 -199 32 C-197.72745361 31.33919434 -197.72745361 31.33919434 -196.42919922 30.66503906 C-180.78775283 22.64363853 -164.6672196 16.53630534 -148 11 C-147.08621582 10.69191406 -146.17243164 10.38382813 -145.23095703 10.06640625 C-131.09223325 5.34715524 -116.69099103 2.43005546 -102 0 C-101.04641602 -0.16661133 -100.09283203 -0.33322266 -99.11035156 -0.50488281 C-67.49674024 -5.84943103 -31.54209202 -5.74554777 0 0 Z " fill="#FEFEFE" transform="translate(551,180)"/>
<path d="M0 0 C1.1667627 0.20931152 2.33352539 0.41862305 3.53564453 0.63427734 C18.97203912 3.4747026 34.13191554 6.95308993 49 12 C49.87672363 12.29632324 50.75344727 12.59264648 51.65673828 12.89794922 C99.15246199 29.14537803 139.85888205 55.40691986 176 90 C176.52400391 90.50063965 177.04800781 91.0012793 177.58789062 91.51708984 C183.40654367 97.1088688 188.75200451 102.90203571 193.7734375 109.21875 C196.01469102 112.01835089 198.34562055 114.72183523 200.6875 117.4375 C216.69267365 136.69333683 229.34843338 158.39623234 240 181 C240.36722168 181.77698242 240.73444336 182.55396484 241.11279297 183.35449219 C245.30558077 192.28855828 249.27280725 201.27618295 252.625 210.5625 C252.88490723 211.27075928 253.14481445 211.97901855 253.41259766 212.70874023 C255.1230265 217.63092049 255.1230265 217.63092049 254 221 C254 220.34 254 219.68 254 219 C252.70630493 218.58572754 252.70630493 218.58572754 251.38647461 218.16308594 C248.1175407 217.0403694 244.98622694 215.76645168 241.81640625 214.390625 C240.64875732 213.8860376 239.4811084 213.3814502 238.27807617 212.86157227 C237.67079681 212.59804962 237.06351746 212.33452698 236.43783569 212.0630188 C217.18163364 203.71483115 197.85413266 196.37457472 177.80078125 190.17578125 C175.52517493 189.47181671 173.25115192 188.76265488 170.98046875 188.04296875 C167.66219624 186.99906776 164.33431195 185.99113252 161 185 C160.18047852 184.75523926 159.36095703 184.51047852 158.51660156 184.25830078 C111.26635426 170.26720985 63.04429454 163.56383105 14 160 C21.5682757 136.45995376 40.46081499 117.0119328 62 105.6875 C86.73485343 93.92455781 116.62483044 95.42498169 142.12255859 104.05712891 C170.40253513 114.21411301 195.53808608 129.374665 219 148 C210.65774193 134.46454817 201.4714477 121.94939978 191 110 C189.83984375 108.65421875 189.83984375 108.65421875 188.65625 107.28125 C164.5837184 79.81822099 131.36756915 64.40703178 97 54 C96.32952637 53.79391113 95.65905273 53.58782227 94.96826172 53.37548828 C74.63245547 47.32285034 51.82268513 45.69029019 30.6875 45.5 C29.59332764 45.48163086 28.49915527 45.46326172 27.37182617 45.44433594 C13.08999576 45.55423844 1.74280519 50.29571622 -8.35546875 60.34375 C-11.72427172 64.02550188 -14.51054829 67.66622889 -17 72 C-18.65 71.67 -20.3 71.34 -22 71 C-21.80664062 70.39414063 -21.61328125 69.78828125 -21.4140625 69.1640625 C-16.74059253 54.12566902 -13.77084034 38.25866676 -21.21875 23.6015625 C-25.83896349 15.87553883 -32.36744129 11.3937208 -41 9 C-49.23541213 8.1113608 -55.83020969 8.83219506 -63 13 C-64.5778125 13.804375 -64.5778125 13.804375 -66.1875 14.625 C-72.74598661 20.16327758 -76.61649583 28.47821822 -77.3359375 36.9609375 C-77.36542647 38.43205375 -77.37770421 39.90359071 -77.375 41.375 C-77.37584595 42.54506592 -77.37584595 42.54506592 -77.37670898 43.73876953 C-77.22656376 51.86302117 -75.31129141 59.25856612 -73 67 C-72.65766885 68.33105157 -72.31908873 69.66318615 -72 71 C-73.65 71.33 -75.3 71.66 -77 72 C-77.4125 71.28714844 -77.825 70.57429688 -78.25 69.83984375 C-85.69499495 57.49245257 -94.13643283 51.29784723 -107.95581055 47.62841797 C-112.98080823 46.59109789 -117.88662026 46.60099991 -123 46.6875 C-124.11648926 46.6980542 -125.23297852 46.7086084 -126.38330078 46.71948242 C-179.44340024 47.53755707 -231.37625069 59.00866546 -274 92 C-274.96164062 92.73605469 -275.92328125 93.47210938 -276.9140625 94.23046875 C-285.86490466 101.22077902 -292.9833187 109.09233465 -300 118 C-300.73162354 118.92498291 -300.73162354 118.92498291 -301.47802734 119.86865234 C-309.89280204 130.55187176 -317.59696078 141.59531796 -325 153 C-323.0315242 151.52535214 -321.06457991 150.04886926 -319.10327148 148.56469727 C-291.48900569 127.69159107 -260.64732779 107.26643618 -226 101 C-225.14301514 100.83298584 -224.28603027 100.66597168 -223.40307617 100.49389648 C-197.7727804 95.77755265 -172.37266367 98.72664394 -150.375 113.0625 C-116.74328463 137.75624404 -104.66857298 175.78534034 -98.28125 215.31640625 C-95.59415518 234.89663396 -95.12521546 255.32918374 -97 275 C-102.07702398 275.81172625 -107.07065095 276.19971985 -112.2109375 276.359375 C-113.84460801 276.419879 -115.478233 276.48162179 -117.11181641 276.54443359 C-118.39684052 276.59358917 -118.39684052 276.59358917 -119.70782471 276.64373779 C-149.66206732 277.83713664 -179.58934927 281.10738987 -209 287 C-210.79002441 287.35118896 -210.79002441 287.35118896 -212.61621094 287.70947266 C-238.9369586 292.89486977 -264.75116326 299.6111523 -290.3125 307.75 C-291.42020752 308.10239746 -292.52791504 308.45479492 -293.66918945 308.81787109 C-299.98948256 310.87874172 -306.1200245 313.21121057 -312.22290039 315.84814453 C-315.15571889 317.0645874 -318.11772421 318.10805409 -321.125 319.125 C-331.60579399 322.80901657 -341.77735144 327.27912158 -351.96777344 331.69140625 C-354.63124572 332.84085967 -357.30242671 333.96943533 -359.9765625 335.09375 C-361.33932978 335.6856889 -362.70138667 336.27926782 -364.0625 336.875 C-365.78146484 337.61363281 -365.78146484 337.61363281 -367.53515625 338.3671875 C-370.24203502 339.79183132 -370.24203502 339.79183132 -370.87109375 342.6953125 C-370.93490234 343.83613281 -370.93490234 343.83613281 -371 345 C-371.33 345 -371.66 345 -372 345 C-372.07762646 337.90982286 -372.12924044 330.81975939 -372.16479492 323.72924805 C-372.17965474 321.32946684 -372.19994822 318.92971162 -372.22631836 316.5300293 C-372.56974751 284.41603685 -368.20368117 253.45233015 -358.5625 222.8125 C-358.33361084 222.08323303 -358.10472168 221.35396606 -357.86889648 220.6026001 C-352.95396594 205.06191985 -346.87844207 190.21482925 -339.75 175.5625 C-339.42163147 174.88546021 -339.09326294 174.20842041 -338.75494385 173.51086426 C-334.11180015 163.96826387 -329.30401168 154.66842982 -323.29833984 145.90039062 C-321.82664161 143.74625391 -320.39249498 141.56906296 -318.95703125 139.390625 C-309.52442561 125.20326842 -299.10267136 112.06046435 -287.4375 99.6484375 C-285.69428555 97.75436796 -284.04943926 95.86505189 -282.42578125 93.875 C-280.43637748 91.51718812 -278.5482081 89.58314525 -276.1875 87.625 C-273.4287663 85.2808441 -270.87201222 82.86999141 -268.375 80.25 C-263.27592352 75.08107315 -257.52787816 70.77043035 -251.77294922 66.3671875 C-250.13804772 65.10645377 -248.5230917 63.81996707 -246.91015625 62.53125 C-232.0449943 50.74625674 -215.83057149 40.72039738 -199 32 C-197.72745361 31.33919434 -197.72745361 31.33919434 -196.42919922 30.66503906 C-180.78775283 22.64363853 -164.6672196 16.53630534 -148 11 C-147.08621582 10.69191406 -146.17243164 10.38382813 -145.23095703 10.06640625 C-131.09223325 5.34715524 -116.69099103 2.43005546 -102 0 C-101.04641602 -0.16661133 -100.09283203 -0.33322266 -99.11035156 -0.50488281 C-67.49674024 -5.84943103 -31.54209202 -5.74554777 0 0 Z " fill="#054F77" transform="translate(551,180)"/>
<path d="M0 0 C4.51544651 3.06595024 8.39264244 6.81118756 12.32421875 10.578125 C12.91847656 11.10921875 13.51273438 11.6403125 14.125 12.1875 C50.42850462 45.80506513 68.89932558 108.45896203 79.82275391 155.51855469 C80.57531459 158.60940275 81.49532917 161.64985954 82.38671875 164.703125 C85.40292072 175.77073958 86.72125615 187.23755115 88.32421875 198.578125 C80.72783091 201.87902533 73.15778534 204.78133922 65.19921875 207.078125 C64.17570313 207.37364258 63.1521875 207.66916016 62.09765625 207.97363281 C54.56658824 210.08260605 46.99919555 211.82977162 39.32421875 213.328125 C38.3791748 213.51439453 37.43413086 213.70066406 36.46044922 213.89257812 C33.08892648 214.51563151 29.71342698 215.05879894 26.32421875 215.578125 C25.50382111 215.70414093 24.68342346 215.83015686 23.83816528 215.95999146 C7.77575277 218.36312828 -8.01030329 219.1050607 -24.23828125 219.015625 C-25.4158902 219.01258362 -26.59349915 219.00954224 -27.80679321 219.00640869 C-46.40472455 218.9355918 -64.38252049 218.11105574 -82.67578125 214.578125 C-84.44526123 214.24071289 -84.44526123 214.24071289 -86.25048828 213.89648438 C-100.69649982 211.06462144 -114.75551612 207.35950718 -128.67578125 202.578125 C-128.91669146 195.49682488 -128.06047976 189.12632882 -126.61328125 182.203125 C-126.38995117 181.11805664 -126.16662109 180.03298828 -125.93652344 178.91503906 C-113.96057337 122.0659373 -93.31558153 35.62068612 -42.32421875 0.26953125 C-28.15935552 -8.77676046 -14.42033394 -8.35523711 0 0 Z " fill="#009C3B" transform="translate(524.67578125,600.421875)"/>
<path d="M0 0 C11.27554198 -0.21470861 22.29124423 0.34702404 33.5 1.5625 C34.70589783 1.69013229 34.70589783 1.69013229 35.93615723 1.82034302 C53.99712138 3.7562027 71.82145808 6.8402518 89.66601562 10.19335938 C93.3083318 10.87621943 96.95628792 11.51760008 100.609375 12.140625 C115.46375681 14.73768087 130.05918566 18.36618072 144.6875 22 C145.7290625 22.25743988 146.770625 22.51487976 147.84375 22.78012085 C158.69006539 25.47083646 169.40167504 28.28364219 179.96166992 31.95019531 C183.71303785 33.24636904 187.48730261 34.31840342 191.3125 35.375 C200.45109168 38.00277696 209.2135102 41.38012218 218 45 C219.49660156 45.61584961 219.49660156 45.61584961 221.0234375 46.24414062 C233.22938217 51.29054511 245.35041049 56.45961096 257.21459961 62.27099609 C257.92495361 62.61727051 258.63530762 62.96354492 259.3671875 63.3203125 C259.97675293 63.62211426 260.58631836 63.92391602 261.21435547 64.23486328 C263.11728107 65.05025415 264.98205325 65.55039413 267 66 C266.835 65.175 266.67 64.35 266.5 63.5 C265.94103955 59.58727683 265.93192813 55.94816827 266 52 C266.33 52 266.66 52 267 52 C269.4312088 67.90495488 270.43001052 83.44939031 270.28125 99.53295898 C270.24954036 102.98757583 270.24020211 106.44173495 270.234375 109.89648438 C270.22522158 112.12760971 270.21485118 114.35873046 270.203125 116.58984375 C270.19887512 117.6055394 270.19462524 118.62123505 270.19024658 119.66770935 C270.1318814 125.51747332 269.74676308 131.19687268 269 137 C263.19942722 135.36590124 258.20631735 132.5351779 252.9375 129.6875 C229.67873601 117.34676878 204.79720695 105.66120216 179.6328125 97.8515625 C176.76841355 96.92509518 173.96654232 95.87708851 171.15136719 94.81201172 C125.23793349 77.48245197 76.55074825 67.86062809 27.89111328 62.43798828 C21.73550931 61.74510627 15.58690694 60.99553102 9.4375 60.25 C7.39457654 60.00483065 5.35161283 59.75999622 3.30859375 59.515625 C2.47126709 59.41540039 1.63394043 59.31517578 0.77124023 59.21191406 C0.18673096 59.14198242 -0.39777832 59.07205078 -1 59 C-2.10453187 54.55554805 -2.14485813 50.20626339 -2.1328125 45.65625 C-2.13376923 44.85070679 -2.13472595 44.04516357 -2.13571167 43.21520996 C-2.13639079 41.51066001 -2.13455521 39.80610745 -2.13037109 38.1015625 C-2.12507514 35.53639652 -2.13029597 32.97141016 -2.13671875 30.40625 C-2.14777069 6.44331208 -2.14777069 6.44331208 0 0 Z " fill="#FE0101" transform="translate(551,396)"/>
<path d="M0 0 C1.75183594 0.00676758 1.75183594 0.00676758 3.5390625 0.01367188 C6.35943413 0.02523078 9.17968558 0.04151552 12 0.0625 C13.64668474 9.32595271 14.42716711 18.41273113 14.6875 27.8125 C14.74828735 29.77243896 14.74828735 29.77243896 14.81030273 31.77197266 C15.0603195 41.26319748 14.9009788 50.60915315 14 60.0625 C8.92297602 60.87422625 3.92934905 61.26221985 -1.2109375 61.421875 C-2.84460801 61.482379 -4.478233 61.54412179 -6.11181641 61.60693359 C-6.96849915 61.63970398 -7.82518188 61.67247437 -8.70782471 61.70623779 C-38.66206732 62.89963664 -68.58934927 66.16988987 -98 72.0625 C-99.19334961 72.29662598 -100.38669922 72.53075195 -101.61621094 72.77197266 C-127.9369586 77.95736977 -153.75116326 84.6736523 -179.3125 92.8125 C-180.42020752 93.16489746 -181.52791504 93.51729492 -182.66918945 93.88037109 C-188.98948256 95.94124172 -195.1200245 98.27371057 -201.22290039 100.91064453 C-204.15571889 102.1270874 -207.11772421 103.17055409 -210.125 104.1875 C-220.60579399 107.87151657 -230.77735144 112.34162158 -240.96777344 116.75390625 C-243.63124572 117.90335967 -246.30242671 119.03193533 -248.9765625 120.15625 C-250.33932978 120.7481889 -251.70138667 121.34176782 -253.0625 121.9375 C-254.20847656 122.42992187 -255.35445312 122.92234375 -256.53515625 123.4296875 C-259.24203502 124.85433132 -259.24203502 124.85433132 -259.87109375 127.7578125 C-259.91363281 128.51835938 -259.95617187 129.27890625 -260 130.0625 C-260.33 130.0625 -260.66 130.0625 -261 130.0625 C-261.02548309 122.69759871 -261.04292255 115.33270892 -261.05493164 107.96777344 C-261.05994138 105.46549047 -261.06675101 102.9632104 -261.07543945 100.4609375 C-261.08765273 96.85155519 -261.09326206 93.2422118 -261.09765625 89.6328125 C-261.10281754 88.52511505 -261.10797882 87.4174176 -261.11329651 86.27615356 C-261.11469979 66.57608604 -261.11469979 66.57608604 -257 60.0625 C-254.29616331 58.22199098 -251.43463133 57.12449539 -248.375 56 C-247.10281616 55.49932007 -247.10281616 55.49932007 -245.80493164 54.98852539 C-239.00836269 52.34446574 -232.12695092 49.92380565 -225.23046875 47.5546875 C-220.85288887 46.03566627 -216.55506722 44.33672723 -212.25 42.625 C-205.70516406 40.04207621 -199.11102607 37.6671258 -192.4375 35.4375 C-191.64827148 35.17267822 -190.85904297 34.90785645 -190.04589844 34.63500977 C-143.61982382 19.33572037 -95.92993638 8.36192779 -47.375 2.875 C-46.25013184 2.74744324 -46.25013184 2.74744324 -45.10253906 2.61730957 C-30.06943603 0.92997107 -15.14314276 -0.11472078 0 0 Z " fill="#FE0001" transform="translate(440,394.9375)"/>
<path d="M0 0 C0.76119141 0.00451172 1.52238281 0.00902344 2.30664062 0.01367188 C4.14196295 0.02521478 5.97724352 0.04313622 7.8125 0.0625 C7.25350483 8.25833827 5.66887962 16.11922067 3.875 24.125 C3.61009766 25.35927734 3.34519531 26.59355469 3.07226562 27.86523438 C2.81251953 29.03505859 2.55277344 30.20488281 2.28515625 31.41015625 C2.05062744 32.47242432 1.81609863 33.53469238 1.57446289 34.62915039 C1.32301514 35.43215576 1.07156738 36.23516113 0.8125 37.0625 C-0.1775 37.5575 -0.1775 37.5575 -1.1875 38.0625 C-2.85456214 37.39682286 -4.52116235 36.72998862 -6.1875 36.0625 C-13.71336843 34.95544156 -19.5278452 35.78874007 -25.8203125 40.12109375 C-39.15645424 51.05849052 -49.74991121 69.74973363 -55.1875 86.0625 C-55.82848633 86.07708252 -56.46947266 86.09166504 -57.12988281 86.10668945 C-82.60762262 86.74430887 -107.48098098 89.1769259 -132.42675781 94.47900391 C-134.75748376 94.97161401 -137.09072876 95.43551131 -139.4296875 95.88671875 C-167.37854002 101.74511831 -196.23457168 112.44743517 -220.69702148 127.10375977 C-222.4875913 128.16018117 -224.3339642 129.12092074 -226.1875 130.0625 C-229.1875 129.0625 -229.1875 129.0625 -230.30322266 127.35791016 C-230.6491748 126.61331543 -230.99512695 125.8687207 -231.3515625 125.1015625 C-231.74738525 124.25037842 -232.14320801 123.39919434 -232.55102539 122.5222168 C-232.96731201 121.58676025 -233.38359863 120.65130371 -233.8125 119.6875 C-234.24618896 118.72175049 -234.67987793 117.75600098 -235.12670898 116.76098633 C-238.56841035 108.89183238 -241.50916903 100.88743649 -244.25 92.75 C-244.63172363 91.62480957 -245.01344727 90.49961914 -245.40673828 89.34033203 C-247.41230437 83.19501296 -248.745507 77.51559784 -249.1875 71.0625 C-220.77457263 55.54150289 -190.78935568 42.07019605 -159.99926758 31.98730469 C-157.44604358 31.1475363 -154.90742221 30.27595366 -152.37109375 29.38671875 C-132.35760026 22.4431763 -111.74736226 17.44510227 -91.10717773 12.73413086 C-88.88714838 12.22344428 -86.67119315 11.6950097 -84.45727539 11.15844727 C-72.42827257 8.30088469 -60.31743686 6.48318452 -48.0715332 4.82495117 C-44.7295094 4.37222424 -41.38911797 3.90869159 -38.04882812 3.44335938 C-35.88810659 3.14521119 -33.72730206 2.84766371 -31.56640625 2.55078125 C-30.5859584 2.4153743 -29.60551056 2.27996735 -28.59535217 2.14045715 C-19.06448478 0.8540496 -9.62364289 -0.11220391 0 0 Z " fill="#FE0101" transform="translate(439.1875,508.9375)"/>
<path d="M0 0 C9.02585039 -0.37434403 17.8361853 1.00868335 26.75 2.25 C27.57868591 2.36393097 28.40737183 2.47786194 29.26116943 2.59524536 C41.92858081 4.34122451 54.49396206 6.31516649 67 9 C68.01610352 9.21237305 69.03220703 9.42474609 70.07910156 9.64355469 C91.37062167 14.10577395 112.27843416 19.69908451 132.98535156 26.35986328 C135.24336138 27.07732593 137.50776246 27.77197814 139.7734375 28.46484375 C147.5836292 30.86496658 155.24919419 33.32753404 162.74609375 36.6015625 C166.1192883 38.05126676 169.52187448 39.40007071 172.93896484 40.74194336 C184.12576708 45.14521375 195.09697475 49.93766453 206 55 C207.36729248 55.63228516 207.36729248 55.63228516 208.76220703 56.27734375 C223.1602258 62.96187253 237.15240874 70.24150745 251 78 C249.20098855 85.67445328 247.1053684 93.10553766 244.375 100.5 C244.03452637 101.4283667 243.69405273 102.3567334 243.34326172 103.31323242 C240.8180369 110.07596068 238.06342693 116.71930724 235.125 123.3125 C234.55338135 124.60220703 234.55338135 124.60220703 233.97021484 125.91796875 C233.61137207 126.70429687 233.2525293 127.490625 232.8828125 128.30078125 C232.56715332 128.99341064 232.25149414 129.68604004 231.92626953 130.3996582 C231 132 231 132 229 133 C226.87133789 132.06298828 226.87133789 132.06298828 224.22265625 130.5703125 C223.24458008 130.02673096 222.26650391 129.48314941 221.25878906 128.9230957 C220.20401367 128.32972412 219.14923828 127.73635254 218.0625 127.125 C195.57186986 114.75714904 172.7054203 105.16319327 148 98 C146.91976562 97.67257812 145.83953125 97.34515625 144.7265625 97.0078125 C118.73108357 89.60859558 91.88892947 87.16774779 65 86 C64.46632813 84.80246094 63.93265625 83.60492187 63.3828125 82.37109375 C55.72432247 65.50884235 46.58851767 46.17391693 29 38 C28.34 37.67 27.68 37.34 27 37 C24.89851818 36.87672071 22.79256093 36.82441994 20.6875 36.8125 C19.55699219 36.79832031 18.42648437 36.78414062 17.26171875 36.76953125 C14.06795157 36.99519863 11.8723571 37.63657346 9 39 C6.2683582 30.91189859 4.15209644 22.75430919 2.25 14.4375 C2.02739502 13.47376465 1.80479004 12.5100293 1.57543945 11.51708984 C1.2673938 10.14544678 1.2673938 10.14544678 0.953125 8.74609375 C0.76911133 7.92810303 0.58509766 7.1101123 0.39550781 6.26733398 C0 4 0 4 0 0 Z " fill="#FE0101" transform="translate(558,508)"/>
<path d="M0 0 C4.15649897 3.62323987 6.43618589 8.08006585 9 12.8671875 C10.44983232 15.50633539 11.77157113 17.7807608 13.95410156 19.87548828 C16.21963508 22.22807452 17.36211358 24.34821852 18.734375 27.3046875 C19.22268799 28.35325928 19.71100098 29.40183105 20.21411133 30.48217773 C20.72095459 31.60180908 21.22779785 32.72144043 21.75 33.875 C22.27424561 35.02363525 22.79849121 36.17227051 23.33862305 37.35571289 C26.75642018 44.95564231 29.93066538 52.61857908 32.8125 60.4375 C33.15571289 61.35966309 33.49892578 62.28182617 33.85253906 63.23193359 C34.3064502 64.50738037 34.3064502 64.50738037 34.76953125 65.80859375 C35.03354736 66.54907959 35.29756348 67.28956543 35.56958008 68.05249023 C36 70 36 70 35 73 C35 72.34 35 71.68 35 71 C34.13753662 70.72381836 33.27507324 70.44763672 32.38647461 70.16308594 C29.1175407 69.0403694 25.98622694 67.76645168 22.81640625 66.390625 C21.06493286 65.6337439 21.06493286 65.6337439 19.27807617 64.86157227 C18.67079681 64.59804962 18.06351746 64.33452698 17.43783569 64.0630188 C-1.81836636 55.71483115 -21.14586734 48.37457472 -41.19921875 42.17578125 C-43.47482507 41.47181671 -45.74884808 40.76265488 -48.01953125 40.04296875 C-51.33780376 38.99906776 -54.66568805 37.99113252 -58 37 C-58.81952148 36.75523926 -59.63904297 36.51047852 -60.48339844 36.25830078 C-107.73364574 22.26720985 -155.95570546 15.56383105 -205 12 C-197.4317243 -11.54004624 -178.53918501 -30.9880672 -157 -42.3125 C-104.00637562 -67.51422362 -40.90378283 -33.90987178 0 0 Z " fill="#FD0101" transform="translate(770,328)"/>
<path d="M0 0 C1.75266383 0.89402672 3.50293764 1.79274916 5.2512207 2.6953125 C6.19649124 3.1792749 7.14176178 3.6632373 8.11567688 4.16186523 C11.13816312 5.71073199 14.15754727 7.26554571 17.17700195 8.8203125 C19.15663245 9.83500074 21.13644856 10.84932696 23.11645508 11.86328125 C32.98398165 16.92271541 42.82287573 22.03265515 52.62741089 27.21304321 C57.99551547 30.04540438 63.38505516 32.83293791 68.7902832 35.59375 C69.53867966 35.97629944 70.28707611 36.35884888 71.05815125 36.75299072 C74.07991691 38.29677876 77.1022071 39.83949955 80.12695312 41.37744141 C82.39143631 42.52956778 84.65351891 43.6862973 86.9152832 44.84375 C87.59029373 45.18546234 88.26530426 45.52717468 88.96076965 45.87924194 C93.00332232 47.95316439 96.75457701 50.23123611 100.48950195 52.8203125 C75.6828325 69.35809214 33.21659016 72.84234218 3.7902832 73.05859375 C2.68938354 73.0683876 1.58848389 73.07818146 0.45422363 73.08827209 C-23.15524393 73.25504608 -46.25972603 73.32338663 -69.51049805 68.8203125 C-71.30390625 68.47492432 -71.30390625 68.47492432 -73.13354492 68.12255859 C-100.54825224 62.68989929 -100.54825224 62.68989929 -112.51049805 57.8203125 C-112.84049805 57.1603125 -113.17049805 56.5003125 -113.51049805 55.8203125 C-112.87474854 55.45494385 -112.23899902 55.0895752 -111.58398438 54.71313477 C-95.59282899 45.51775759 -79.65600829 36.23403279 -63.74920654 26.89367676 C-56.94097192 22.89701638 -50.12827405 18.90773084 -43.2956543 14.95288086 C-38.12231647 11.95418006 -32.99158724 8.90081047 -27.8972168 5.76953125 C-26.80771729 5.10912842 -25.71821777 4.44872559 -24.59570312 3.76831055 C-22.50333503 2.49863186 -20.420525 1.21302425 -18.34912109 -0.09057617 C-17.40979736 -0.65623291 -16.47047363 -1.22188965 -15.50268555 -1.8046875 C-14.6813916 -2.31257812 -13.86009766 -2.82046875 -13.01391602 -3.34375 C-8.22396996 -4.94320146 -4.27630447 -2.10005525 0 0 Z " fill="#FEDE00" transform="translate(511.510498046875,746.1796875)"/>
<path d="M0 0 C-1.2595041 6.6286865 -2.74171267 13.15607969 -4.4609375 19.6796875 C-4.93765339 21.51558518 -5.41421061 23.35152406 -5.890625 25.1875 C-6.6277011 28.01522731 -7.3664658 30.84248822 -8.10839844 33.66894531 C-11.52503066 46.70718076 -14.50601816 59.75330624 -17 73 C-17.93401642 73.12073631 -17.93401642 73.12073631 -18.88690186 73.24391174 C-41.007788 76.11688404 -60.54332894 82.24392489 -81 91 C-81.556875 90.43152344 -82.11375 89.86304688 -82.6875 89.27734375 C-86.35421303 85.56727431 -90.00966609 81.92532172 -94 78.5625 C-104.56233865 69.4642479 -113.01753393 57.88654509 -121.5625 46.9375 C-122.00456787 46.37699951 -122.44663574 45.81649902 -122.90209961 45.23901367 C-126 41.23239583 -126 41.23239583 -126 39 C-102.78649916 25.75065683 -78.9501482 14.75515147 -53 8 C-52.20110352 7.78746582 -51.40220703 7.57493164 -50.57910156 7.35595703 C-34.23707357 3.08038992 -16.93810939 0 0 0 Z " fill="#FE0101" transform="translate(365,646)"/>
<path d="M0 0 C5.9667531 -0.22854868 11.45925286 0.63531543 17.3125 1.75 C18.27583252 1.92974365 19.23916504 2.1094873 20.23168945 2.29467773 C32.94411415 4.70018392 45.56278266 7.42217035 58 11 C59.78277344 11.46792969 59.78277344 11.46792969 61.6015625 11.9453125 C80.81219724 17.11550659 102.36316462 24.90877641 119 36 C115.85683463 54.81533713 87.22427734 76.95259057 74 90 C68.95322986 88.58260924 64.02796304 87.07064484 59.19140625 85.0390625 C53.25247494 82.6003765 47.14109423 80.99488711 40.9375 79.375 C39.81794922 79.0759375 38.69839844 78.776875 37.54492188 78.46875 C31.38940825 76.83690709 25.22121649 75.35689285 19 74 C18.72849121 72.86272461 18.45698242 71.72544922 18.17724609 70.55371094 C17.14296914 66.22825955 16.10105627 61.90467444 15.05712891 57.58154297 C14.61111822 55.73013568 14.16702727 53.87826459 13.72509766 52.02587891 C10.36549769 37.95229271 6.4843722 24.11022715 2.15496826 10.30554199 C1.88001526 9.41548462 1.60506226 8.52542725 1.32177734 7.60839844 C1.06907074 6.79868591 0.81636414 5.98897339 0.55599976 5.15472412 C0 3 0 3 0 0 Z " fill="#FF0101" transform="translate(643,646)"/>
<path d="M0 0 C3.98088719 1.54454745 6.28787588 4.28909685 8.9375 7.5 C9.65147949 8.35996582 9.65147949 8.35996582 10.37988281 9.23730469 C19.99989341 20.98955354 28.41245326 33.36984003 36.25 46.375 C36.90645508 47.46329102 37.56291016 48.55158203 38.23925781 49.67285156 C43.2711621 58.15734233 43.2711621 58.15734233 44 62 C41.04185281 59.38772848 39.28123892 56.33429693 37.3125 52.9375 C36.68988281 51.87402344 36.06726563 50.81054688 35.42578125 49.71484375 C34 47 34 47 34 45 C33.34 45 32.68 45 32 45 C31.63261719 44.26910156 31.63261719 44.26910156 31.2578125 43.5234375 C25.11683179 31.87674994 16.85436934 21.59367169 8.46679688 11.50561523 C5.39389527 7.79663058 2.59390995 4.06003297 0 0 Z " fill="#18567B" transform="translate(739,285)"/>
<path d="M0 0 C0 3.90190406 -1.16204291 4.69601386 -3.6875 7.625 C-14.44532116 20.46007705 -24.12866331 33.79519435 -33 48 C-34 45 -34 45 -32.98828125 42.8984375 C-31.00995968 39.91942647 -29.02578039 36.94688373 -27 34 C-26.55897949 33.35095703 -26.11795898 32.70191406 -25.66357422 32.03320312 C-17.9343132 20.69091861 -9.85938611 9.60833693 0 0 Z " fill="#13597F" transform="translate(260,284)"/>
</svg>
